<?xml version="1.0"?>
<svg xmlns="http://www.w3.org/2000/svg" xmlns:xlink="http://www.w3.org/1999/xlink" xmlns:svgjs="http://svgjs.com/svgjs" version="1.1" width="512" height="512" x="0" y="0" viewBox="0 0 512 512" style="enable-background:new 0 0 512 512" xml:space="preserve" class=""><g><g xmlns="http://www.w3.org/2000/svg"><path d="m393.266 443.222c-3.95-1.232-8.159.97-9.395 4.923l-6.091 19.498c-5.485 17.559-21.53 29.357-39.927 29.357h-163.456c-18.397 0-34.442-11.798-39.927-29.357l-54.874-175.654c-7.441-23.82-4.268-49.692 8.708-70.98 2.156-3.537 1.036-8.151-2.501-10.308-3.538-2.157-8.152-1.037-10.308 2.501-15.221 24.974-18.945 55.32-10.216 83.26l54.874 175.653c7.451 23.857 29.25 39.885 54.244 39.885h163.456c24.994 0 46.793-16.028 54.245-39.885l6.091-19.498c1.234-3.954-.97-8.16-4.923-9.395z" fill="#2cc1d6" data-original="#000000" style="" class=""/><path d="m390.062 173.822c-16.98-7.383-34.211-13.447-51.345-18.097l15.944-35.995h38.17c10.107 0 18.33-8.223 18.33-18.33v-38.73c0-10.107-8.223-18.33-18.33-18.33h-37.625c-.921-1.548-1.896-3.07-2.942-4.555l-17.58-24.953c-6.544-9.287-17.233-14.832-28.595-14.832h-99.93c-11.361 0-22.051 5.545-28.595 14.833l-17.58 24.952c-14.318 20.324-16.958 47.071-6.89 69.803l20.063 45.291c-17.733 4.724-35.444 11.017-52.767 18.774-7 3.128-13.639 7.059-19.732 11.681-3.3 2.504-3.946 7.208-1.442 10.509 1.475 1.944 3.714 2.967 5.98 2.967 1.58 0 3.172-.496 4.527-1.524 5.183-3.932 10.831-7.275 16.792-9.94 17.343-7.767 35.074-13.992 52.796-18.57l5.206 11.752c.32.721.669 1.423 1.04 2.109-17.674 4.406-35.418 10.572-52.911 18.397-32.883 14.714-49.536 51.894-38.735 86.482l54.872 175.656c3.53 11.261 13.825 18.827 25.617 18.827h163.45c11.8 0 22.091-7.569 25.609-18.834l54.61-174.799c10.925-34.965-6.258-72.378-39.968-87.025-17.268-7.508-34.663-13.507-51.877-17.906.545-.939 1.059-1.901 1.506-2.909l4.837-10.92c17.163 4.532 34.461 10.558 51.513 17.972 40.75 17.72 61.516 62.974 48.301 105.266l-38.069 121.89c-1.235 3.954.969 8.16 4.923 9.396.744.232 1.497.343 2.238.343 3.194 0 6.155-2.057 7.157-5.266l38.069-121.89c15.505-49.622-8.844-102.713-56.637-123.495zm2.769-114.482c1.836 0 3.33 1.494 3.33 3.33v38.73c0 1.836-1.494 3.33-3.33 3.33h-31.747c5.24-14.699 5.424-30.707.817-45.391h30.93zm-220.584-10.916 17.579-24.952c3.738-5.305 9.844-8.472 16.333-8.472h99.93c6.489 0 12.595 3.167 16.333 8.472l17.58 24.952c11.301 16.041 13.384 37.149 5.438 55.09l-31.423 70.938c-2.412 5.443-7.817 8.961-13.77 8.961h-88.245c-5.953 0-11.357-3.518-13.769-8.96l-31.423-70.938c-7.947-17.942-5.863-39.051 5.437-55.091zm83.877 288.026c16.108 0 29.213-13.104 29.213-29.213v-52.244c7.141 7.409 11.284 17.37 11.284 28.066v87.15c0 22.332-18.168 40.5-40.5 40.5s-40.5-18.168-40.5-40.5v-87.15c0-10.692 4.145-20.654 11.291-28.068v52.246c0 16.109 13.104 29.213 29.212 29.213zm14.213-29.213c0 7.837-6.376 14.213-14.213 14.213s-14.212-6.376-14.212-14.213v-108.825h28.425zm133.416-23.343-54.61 174.801c-1.551 4.968-6.089 8.306-11.291 8.306h-163.45c-5.202 0-9.745-3.341-11.301-8.307l-54.87-175.648c-8.536-27.337 4.595-56.708 30.543-68.318 19.708-8.817 39.721-15.414 59.532-19.641 4.162 2.134 8.833 3.327 13.696 3.327h14.91v37.455c-16.325 10.086-26.291 27.765-26.291 47.192v87.15c0 30.603 24.897 55.5 55.5 55.5s55.5-24.897 55.5-55.5v-87.15c0-19.435-9.963-37.112-26.284-47.187v-37.46h14.91c4.418 0 8.683-.974 12.548-2.752 19.578 4.298 39.523 10.827 59.328 19.438 26.666 11.586 40.264 41.161 31.63 68.794z" fill="#2cc1d6" data-original="#000000" style="" class=""/><path d="m338.57 258.167h9.979c4.142 0 7.5-3.357 7.5-7.5s-3.358-7.5-7.5-7.5h-9.979c-4.142 0-7.5 3.357-7.5 7.5s3.358 7.5 7.5 7.5z" fill="#2cc1d6" data-original="#000000" style="" class=""/><path d="m338.57 322.476h9.979c4.142 0 7.5-3.357 7.5-7.5s-3.358-7.5-7.5-7.5h-9.979c-4.142 0-7.5 3.357-7.5 7.5s3.358 7.5 7.5 7.5z" fill="#2cc1d6" data-original="#000000" style="" class=""/><path d="m348.55 371.785h-9.979c-4.142 0-7.5 3.357-7.5 7.5s3.358 7.5 7.5 7.5h9.979c4.142 0 7.5-3.357 7.5-7.5s-3.358-7.5-7.5-7.5z" fill="#2cc1d6" data-original="#000000" style="" class=""/></g></g></svg>
