<?xml version="1.0"?>
<svg xmlns="http://www.w3.org/2000/svg" xmlns:xlink="http://www.w3.org/1999/xlink" xmlns:svgjs="http://svgjs.com/svgjs" version="1.1" width="512" height="512" x="0" y="0" viewBox="0 0 511.78 511.78" style="enable-background:new 0 0 512 512" xml:space="preserve"><g><g xmlns="http://www.w3.org/2000/svg"><path d="m223.885 83.797-83.885-67.907h-140v60h115l68.149 56.791z" fill="#2cc1d6" data-original="#000000" style=""/><path d="m484.458 299.135 27.322-29.806-115.133-94.2 2.615-11.768c4.542-20.442-2.629-41.47-18.717-54.875l-18.303-15.252c-18.532-15.444-44.728-17.229-65.182-4.444l-5.8 3.625-20.953-17.461-100.307 120.367v62.779l55.585 44.468 104.398 85.065c10.517 8.57 23.273 12.774 35.98 12.774 15.371 0 30.67-6.154 41.835-18.179l28.469-30.659.071.06 27.828-30.358 5.115 5.115c6.913 6.911 10.719 16.1 10.719 25.874v143.63h30v-143.63c0-17.788-6.927-34.511-19.505-47.088zm-98.643 62.679c-9.667 10.411-25.868 11.536-36.881 2.562l-84.329-68.712 57.526-21.915-6.84 34.199 29.417 5.884 6.738-33.692 61.847 52.082z" fill="#2cc1d6" data-original="#000000" style=""/></g></g></svg>
