<?xml version="1.0"?>
<svg xmlns="http://www.w3.org/2000/svg" xmlns:xlink="http://www.w3.org/1999/xlink" xmlns:svgjs="http://svgjs.com/svgjs" version="1.1" width="512" height="512" x="0" y="0" viewBox="0 0 512 512" style="enable-background:new 0 0 512 512" xml:space="preserve" class=""><g><g xmlns="http://www.w3.org/2000/svg"><path d="m401 424.58v-39.137c0-29.684-8.249-58.72-23.854-83.971-11.04-17.864-25.42-33.28-42.291-45.472 16.871-12.192 31.251-27.609 42.291-45.472 15.605-25.251 23.854-54.287 23.854-83.971v-39.137c17.459-6.192 30-22.865 30-42.42 0-24.813-20.187-45-45-45h-260c-24.813 0-45 20.187-45 45 0 19.555 12.541 36.228 30 42.42v39.137c0 29.684 8.249 58.72 23.854 83.971 11.04 17.863 25.42 33.28 42.291 45.472-16.871 12.192-31.251 27.608-42.291 45.472-15.605 25.251-23.854 54.287-23.854 83.971v39.137c-17.459 6.192-30 22.865-30 42.42 0 24.813 20.187 45 45 45h260c24.813 0 45-20.187 45-45 0-19.555-12.541-36.228-30-42.42zm-275-394.58h260c8.271 0 15 6.729 15 15s-6.729 15-15 15h-260c-8.271 0-15-6.729-15-15s6.729-15 15-15zm15 355.443c0-49.452 27.477-93.911 71.708-116.026 5.082-2.542 8.292-7.735 8.292-13.417s-3.21-10.875-8.292-13.417c-44.231-22.115-71.708-66.574-71.708-116.026v-36.557h230v36.557c0 49.452-27.477 93.911-71.708 116.026-5.082 2.542-8.292 7.735-8.292 13.417s3.21 10.875 8.292 13.417c44.231 22.115 71.708 66.574 71.708 116.026v36.557h-30.248l-.271-16.25c-.008-.464-.037-.927-.088-1.388-3.703-33.698-24.085-62.899-54.518-78.11l-14.875-7.441v-95.622l14.87-7.439c26.637-13.313 45.767-37.496 52.485-66.349 1.038-4.457-.016-9.144-2.861-12.729-2.846-3.584-7.172-5.673-11.748-5.673h-135.492c-4.576 0-8.902 2.089-11.748 5.673s-3.899 8.271-2.861 12.729c6.719 28.853 25.849 53.036 52.48 66.346l14.875 7.442v95.623l-14.87 7.438c-30.438 15.213-50.819 44.414-54.522 78.112-.051.461-.08.924-.088 1.388l-.272 16.25h-30.248zm115-188.295-16.458-8.232c-12.586-6.291-22.773-16.042-29.502-27.916h91.919c-6.729 11.874-16.916 21.625-29.506 27.918zm0 147.704 16.458 8.232c21.082 10.537 35.263 30.65 38.039 53.896l.25 15.02h-109.494l.25-15.02c2.776-23.245 16.957-43.358 38.044-53.898zm130 137.148h-260c-8.271 0-15-6.729-15-15s6.729-15 15-15h260c8.271 0 15 6.729 15 15s-6.729 15-15 15z" fill="#2cc1d6" data-original="#000000" style="" class=""/></g></g></svg>
