<?xml version="1.0"?>
<svg xmlns="http://www.w3.org/2000/svg" id="Layer_1" data-name="Layer 1" viewBox="0 0 512 512" width="512" height="512"><g><path d="M117.251,282.226a41,41,0,1,0,41,41A41.047,41.047,0,0,0,117.251,282.226Zm0,68a27,27,0,1,1,27-27A27.03,27.03,0,0,1,117.251,350.226Z" data-original="#000000" class="active-path" style="fill:#2DC1D6" data-old_color="#000000"/><path d="M399.8,282.727a41,41,0,1,0,41,41A41.046,41.046,0,0,0,399.8,282.727Zm0,68a27,27,0,1,1,27-27A27.03,27.03,0,0,1,399.8,350.727Z" data-original="#000000" class="active-path" style="fill:#2DC1D6" data-old_color="#000000"/><path d="M493.571,201.972l-57.4-49.336A27.157,27.157,0,0,0,418.6,146H272.951c-1.658,0-3.324.174-4.992.222a8.539,8.539,0,0,0-2.612.2,194.757,194.757,0,0,0-41.116,6.333,230.725,230.725,0,0,0-30.15,10.284,288.77,288.77,0,0,0-82.472,53.24A227.966,227.966,0,0,0,39.6,229.074,45.5,45.5,0,0,0,17.389,245.93,45.982,45.982,0,0,0,9,272.491v44.923A11.562,11.562,0,0,0,20.313,329H63.4a7.118,7.118,0,0,0,7-6.878,46.908,46.908,0,0,1,93.755.034,7.09,7.09,0,0,0,7,6.844H345.08a7.117,7.117,0,0,0,7-6.878,46.91,46.91,0,0,1,93.7-1.222,6.991,6.991,0,0,0,8.417,6.405,58.065,58.065,0,0,0,5.945-1.592A62.024,62.024,0,0,0,503,266.733V222.472A26.966,26.966,0,0,0,493.571,201.972ZM418.6,160a13.148,13.148,0,0,1,8.46,3.266l57.4,49.267a13.655,13.655,0,0,1,3.654,4.736L385,217.016V160ZM371,216.977l-97-.268V160h97ZM199.481,175.965a217.139,217.139,0,0,1,28.352-9.653,177.3,177.3,0,0,1,32.167-5.5V216.67l-127.028-.353C146.752,205.1,170.194,188.212,199.481,175.965Zm-82.207,87.158A60.31,60.31,0,0,0,57.023,315H23V272.491a32.04,32.04,0,0,1,5.845-18.512,31.576,31.576,0,0,1,15.405-11.7A213.889,213.889,0,0,1,114.5,230.266l145.5.4V315H177.526A60.31,60.31,0,0,0,117.274,263.123Zm351.88,42.485a48.042,48.042,0,0,1-10.55,5.781A60.931,60.931,0,0,0,338.7,315H274V230.709l215,.6V250H471.672a7,7,0,0,0,0,14H489v2.733A48.118,48.118,0,0,1,469.154,305.608Z" data-original="#000000" class="active-path" style="fill:#2DC1D6" data-old_color="#000000"/><path d="M234.269,240H209.555a7,7,0,0,0,0,14h24.714a7,7,0,0,0,0-14Z" data-original="#000000" class="active-path" style="fill:#2DC1D6" data-old_color="#000000"/></g> </svg>
